<svg xmlns="http://www.w3.org/2000/svg" viewBox="0 0 595.28 202.72"><defs><style>.cls-1{fill:#fff;}</style></defs><title>logoLetras</title><g id="Layer_1" data-name="Layer 1"><path class="cls-1" d="M112.54,84.85h11.7a20.49,20.49,0,0,1,9.32,2,14.54,14.54,0,0,1,6.19,5.78,18.6,18.6,0,0,1,0,17.4,14.61,14.61,0,0,1-6.19,5.78,20.49,20.49,0,0,1-9.32,2h-11.7Zm-8.94-7.57v48.16h21.05a30.13,30.13,0,0,0,13.69-3,22.12,22.12,0,0,0,9.28-8.46,25.71,25.71,0,0,0,0-25.24,22.12,22.12,0,0,0-9.28-8.46,30.13,30.13,0,0,0-13.69-3Zm160,0L244.81,109.2,225.69,77.28h-7.36v48.16h8.53V93.93l15.82,26h4l15.82-26.41.07,31.92H271L271,77.28Zm20.43,0v48.16h36.11v-7.5H293V104.66h23.25V97.3H293V84.78h26.21v-7.5Zm79,0v26.83q0,14.17-12.19,14.17t-12.24-14.17V77.28h-8.94v27.17q0,10.47,5.58,16.07t15.54,5.6q10,0,15.51-5.6t5.54-16.07V77.28Zm30.25,7.57h10.46c3.89,0,6.86.82,8.88,2.48a8.64,8.64,0,0,1,3,7.08,8.66,8.66,0,0,1-3,7.09c-2,1.65-5,2.47-8.88,2.47H393.31Zm-8.93-7.57v48.16h8.93v-13.9h10.87a26.56,26.56,0,0,0,10.9-2.07,15.65,15.65,0,0,0,7.12-5.94,18,18,0,0,0,0-18.27,15.78,15.78,0,0,0-7.12-5.91,26.56,26.56,0,0,0-10.9-2.07Zm66,8.94,9.08,21h-18.1Zm-4.34-8.94-21.66,48.16h9.21l4.76-11.15h24.06l4.82,11.15h9.35L454.88,77.28Zm36.67,48.16h8.93V77.29h-8.93Zm-308.5-9.33a15.57,15.57,0,0,1-6.05-6,18.23,18.23,0,0,1,0-17.4,15.66,15.66,0,0,1,6.05-6.06,18.46,18.46,0,0,1,17.33,0,15.75,15.75,0,0,1,6.06,6.06,18.3,18.3,0,0,1,0,17.4,15.66,15.66,0,0,1-6.06,6,18.39,18.39,0,0,1-17.33,0M169.63,79.8a23.79,23.79,0,0,0-9.29,8.86,25.66,25.66,0,0,0,0,25.39,23.74,23.74,0,0,0,9.29,8.87,29.14,29.14,0,0,0,26.55,0,23.67,23.67,0,0,0,9.29-8.84,25.71,25.71,0,0,0,0-25.45,23.79,23.79,0,0,0-9.29-8.83,29.14,29.14,0,0,0-26.55,0"/></g></svg>