<svg id="Layer_1" data-name="Layer 1" xmlns="http://www.w3.org/2000/svg" viewBox="0 0 343.66 361.4"><defs><style>.cls-1{fill:#fff;}</style></defs><title>logos</title><path class="cls-1" d="M96.22,237.38h4.94a8.61,8.61,0,0,1,3.93.85,6.13,6.13,0,0,1,2.62,2.44,7.84,7.84,0,0,1,0,7.33,6.13,6.13,0,0,1-2.62,2.44,8.61,8.61,0,0,1-3.93.85H96.22Zm-3.77-3.19v20.29h8.88a12.77,12.77,0,0,0,5.78-1.26,9.35,9.35,0,0,0,3.92-3.57A10.86,10.86,0,0,0,111,239a9.35,9.35,0,0,0-3.92-3.57,12.77,12.77,0,0,0-5.78-1.26Zm67.53,0-7.92,13.45L144,234.19h-3.1v20.29h3.6V241.2l6.67,11h1.69L159.52,241l0,13.45h3.57l0-20.29Zm8.62,0v20.29h15.24v-3.16H172.38v-5.59h9.81v-3.11h-9.81v-5.27h11.06v-3.16Zm33.37,0v11.3c0,4-1.72,6-5.15,6s-5.16-2-5.16-6v-11.3h-3.78v11.45a9.22,9.22,0,0,0,2.35,6.77,10.28,10.28,0,0,0,13.11,0c1.56-1.58,2.34-3.83,2.34-6.77V234.19Zm12.76,3.19h4.42a5.8,5.8,0,0,1,3.75,1,4.14,4.14,0,0,1,0,6,5.8,5.8,0,0,1-3.75,1.05h-4.42ZM211,234.19v20.29h3.77v-5.85h4.6a11.19,11.19,0,0,0,4.59-.88,6.55,6.55,0,0,0,3-2.5,7.58,7.58,0,0,0,0-7.7,6.66,6.66,0,0,0-3-2.49,11.19,11.19,0,0,0-4.59-.87ZM238.84,238l3.83,8.87H235ZM237,234.19l-9.15,20.29h3.89l2-4.7h10.16l2,4.7h4l-9.18-20.29Zm15.47,20.29h3.78V234.19h-3.78Zm-130.22-3.93a6.58,6.58,0,0,1-2.55-2.55,7.69,7.69,0,0,1,0-7.33,6.65,6.65,0,0,1,2.55-2.55,7.74,7.74,0,0,1,7.32,0,6.6,6.6,0,0,1,2.56,2.55,7.69,7.69,0,0,1,0,7.33,6.54,6.54,0,0,1-2.56,2.55,7.74,7.74,0,0,1-7.32,0m-1.94-15.3A10.05,10.05,0,0,0,116.4,239a10.79,10.79,0,0,0,0,10.7,10,10,0,0,0,3.92,3.74,12.31,12.31,0,0,0,11.21,0,10.1,10.1,0,0,0,3.92-3.72,10.84,10.84,0,0,0,0-10.73,10.1,10.1,0,0,0-3.92-3.72,12.31,12.31,0,0,0-11.21,0"/><path class="cls-1" d="M174.35,196.43c-.54,0-1.1,0-1.64,0v16H176v-16c-.55,0-1.09,0-1.65,0m-31.52-40.18a32,32,0,0,0,1.85,6h21.85l-6-6Zm38.71,0v.63l5.38,5.34H204a32,32,0,0,0,1.84-6ZM124.34,171v9h-5.26Zm100,0,5.26,9h-5.26ZM165.2,107.18l-.32.07a43.79,43.79,0,0,0-19.34,9.84l6,5.91a0,0,0,0,0,0,0l4.12,4.12h14.54v22.71h0v0l-5.94-5.88L161.3,141l-6-5.89-8-7.95-6-5.9A43.43,43.43,0,0,0,143,180h-4.16c-.26-.29-.5-.6-.74-.9a46.79,46.79,0,0,1-3.3-4.59V180h-7.11V165.33l1.73-3a46.1,46.1,0,0,1-1.41-7.09l-2.61,4.47L113.54,180H92.45v7.46h16.73L94.64,212.39h5.54l14.07-24.1v24.1h3.29V187.47h6.8v24.92h3.3V187.47h7.11v24.92h3.3V187.47h14.42l6.21-6.16a35.18,35.18,0,0,1-16-47l6.74,6.68,6,5.91,13,12.94,1.76,1.74v22.75l-.34.34h0l-1.41,1.4-5.71,5.67a42.65,42.65,0,0,0,10.3,1.56h0c.45,0,.89,0,1.35,0s.89,0,1.34,0A42.89,42.89,0,0,0,186,191.77l-5.73-5.67-1.41-1.4-.34-.34V169.92L190,181.31l6.19,6.16h14.43v24.92H214V187.47h7.12v24.92h3.29V187.47h6.81v24.92h3.29v-24.1l14.06,24.1h5.54l-14.54-24.92h16.74V180h-21.1l-11.8-20.24-2.62-4.48a47.29,47.29,0,0,1-1.39,7.09l1.72,3V180H214v-5.49a46.7,46.7,0,0,1-3.29,4.59c-.24.3-.49.61-.74.9h-4.15a43.45,43.45,0,0,0,6.47-51.81,44.51,44.51,0,0,0-4.91-6.91l-6,5.9a35.41,35.41,0,0,1,4.67,7.16,35.12,35.12,0,0,1-8.86,42.26L180.3,159.87l-1.76-1.74v-8.3h0V127.11h14.52L197.2,123s0,0,0,0l6-5.91a43.76,43.76,0,0,0-19.35-9.84l-.3-.07a44.18,44.18,0,0,0-18.32,0m7.51-19.12V99.89a48.31,48.31,0,0,0-7.36.78ZM176,99.89V88.06l7.35,12.61a48,48,0,0,0-7.35-.78m-3.29-31v9.66l-1.16,2-12.69,21.76-2.62,4.48a46.38,46.38,0,0,1,16.47-3.61c.54,0,1.1,0,1.64,0s1.1,0,1.65,0a46.39,46.39,0,0,1,16.46,3.61l-2.61-4.48L177.52,81.19l-.66-1.14-.46-.79-.4-.7V68.9Z"/><path class="cls-1" d="M316.43,168.28a15.27,15.27,0,0,0-1.31-6.31c.3-.68.7-2.35.31-6.19a15.41,15.41,0,0,0-1.78-6c.24-.57.62-2.21-.16-6.36a15.51,15.51,0,0,0-2.2-5.68c.2-.56.46-2.22-.7-6.35a15.57,15.57,0,0,0-2.75-5.56c.13-.68.14-2.38-1.29-6.13a15.36,15.36,0,0,0-3.28-5.36c.07-.68,0-2.37-1.81-6a15.48,15.48,0,0,0-3.69-5c0-.69-.28-2.37-2.33-5.81a15.22,15.22,0,0,0-4.19-4.73c0-.68-.45-2.32-2.83-5.62h0a15.27,15.27,0,0,0-4.64-4.38c-.12-.69-.7-2.29-3.3-5.32a15.31,15.31,0,0,0-5.11-4c-.16-.67-.87-2.21-3.75-5a15.36,15.36,0,0,0-5.37-3.53c-.22-.64-1-2.12-4.19-4.7a15.33,15.33,0,0,0-5.72-3.06c-.26-.61-1.21-2-4.58-4.32a15.56,15.56,0,0,0-5.68-2.49c-.24-.52-1.19-1.88-5-4a15.22,15.22,0,0,0-6.44-2.06h-.32a17.16,17.16,0,0,0-4.72-2.83,15.39,15.39,0,0,0-6.19-1.48c-.42-.52-1.7-1.64-5.55-3A15.26,15.26,0,0,0,211.5,36c-.5-.5-1.91-1.47-5.74-2.44A16.28,16.28,0,0,0,200.7,33c-.7-.47-2.26-1.19-5.7-1.75a15.34,15.34,0,0,0-6.3.16c-.6-.41-2.17-1.1-6-1.39a15.47,15.47,0,0,0-6.22.7c-.61-.36-2.21-.94-6.19-.89A15.68,15.68,0,0,0,164.17,31c-.65-.3-2.31-.72-6.22-.33a15.56,15.56,0,0,0-5.84,1.69c-.63-.25-2.3-.57-6.29.19a15.26,15.26,0,0,0-5.88,2.32c-.67-.19-2.37-.34-6.22.74h0a15.26,15.26,0,0,0-5.59,2.77c-.69-.13-2.39-.13-6.13,1.29A15.25,15.25,0,0,0,116.68,43c-.69-.07-2.39.07-6,1.81a15.22,15.22,0,0,0-5.09,3.78c-.71,0-2.39.3-5.8,2.33A15.54,15.54,0,0,0,95.14,55c-.69.06-2.34.5-5.58,2.83a15.21,15.21,0,0,0-4.33,4.56c-.71.13-2.31.74-5.29,3.3a15.47,15.47,0,0,0-3.87,4.83c-.68.18-2.22.9-5,3.75a15.5,15.5,0,0,0-3.45,5.17c-.65.24-2.13,1.08-4.66,4.18A15.52,15.52,0,0,0,60,89c-.63.28-2,1.25-4.29,4.57a15.42,15.42,0,0,0-2.5,5.72c-.59.33-1.91,1.4-3.89,4.94a15.37,15.37,0,0,0-2,5.82c-.57.39-1.79,1.58-3.44,5.25a15.4,15.4,0,0,0-1.47,6.14c-.53.42-1.64,1.71-3,5.53a15.36,15.36,0,0,0-.93,6.2c-.5.49-1.48,1.89-2.46,5.75a15.22,15.22,0,0,0-.38,6.29c-.46.54-1.31,2-1.95,5.94a15.45,15.45,0,0,0,.17,6.29c-.41.55-1.14,2.09-1.44,6.11a15.61,15.61,0,0,0,.68,6.17c-.35.61-.93,2.22-.88,6.19a15.54,15.54,0,0,0,1.25,6.14c-.3.62-.75,2.27-.35,6.26a15.25,15.25,0,0,0,1.79,6c-.25.64-.56,2.32.19,6.27a15.41,15.41,0,0,0,2.24,5.75c-.18.7-.31,2.4.75,6.19A15.56,15.56,0,0,0,41,218.2c-.13.68-.14,2.39,1.28,6.13a15.59,15.59,0,0,0,3.27,5.35c0,.71.11,2.41,1.82,5.95a15.28,15.28,0,0,0,3.66,5c0,.72.3,2.4,2.33,5.79a15.17,15.17,0,0,0,4.14,4.69c.06.71.51,2.36,2.82,5.57A15.49,15.49,0,0,0,64.82,261c.13.7.72,2.3,3.3,5.29a15.22,15.22,0,0,0,4.89,3.9c.17.68.89,2.22,3.76,5a15.15,15.15,0,0,0,5.2,3.46c.23.66,1.08,2.14,4.17,4.66a15.47,15.47,0,0,0,5.46,3c.29.64,1.26,2,4.57,4.28a15.35,15.35,0,0,0,5.72,2.5c.34.61,1.42,1.92,4.93,3.88a15.4,15.4,0,0,0,5.84,2c.41.58,1.62,1.78,5.23,3.41A15.52,15.52,0,0,0,124,303.8c.43.53,1.73,1.64,5.53,3a16.13,16.13,0,0,0,5.33,1c.3,0,.6,0,.9-.05.5.5,1.9,1.47,5.74,2.45a17.12,17.12,0,0,0,4.22.57,12.75,12.75,0,0,0,2.07-.18c.55.46,2,1.3,5.92,1.93a18.41,18.41,0,0,0,3,.25,13.46,13.46,0,0,0,3.28-.39c.6.41,2.16,1.11,6.05,1.4.51,0,1,0,1.49,0a14.65,14.65,0,0,0,4.75-.75c.58.33,2.07.88,5.7.88h.49a15.31,15.31,0,0,0,6.17-1.25,8.19,8.19,0,0,0,3.42.51c.78,0,1.72-.05,2.85-.16a15.51,15.51,0,0,0,6-1.78,5.87,5.87,0,0,0,2,.27,22.73,22.73,0,0,0,4.21-.48,15.49,15.49,0,0,0,5.59-2.13A4.45,4.45,0,0,0,210,309a19.1,19.1,0,0,0,5-.88,15.29,15.29,0,0,0,5.73-2.88,3.94,3.94,0,0,0,.56,0,16.39,16.39,0,0,0,5.47-1.34,15.57,15.57,0,0,0,5.25-3.18h.25c.83,0,2.53-.29,5.71-1.83a15.5,15.5,0,0,0,5.07-3.74c.71,0,2.39-.31,5.79-2.34a15.4,15.4,0,0,0,4.71-4.15c.7-.06,2.34-.5,5.57-2.83a15.44,15.44,0,0,0,4.22-4.39c.7-.13,2.3-.72,5.31-3.31a15.17,15.17,0,0,0,3.94-5c.67-.17,2.22-.88,5-3.75a15.38,15.38,0,0,0,3.41-5.09c.68-.25,2.15-1.12,4.63-4.16a15.52,15.52,0,0,0,2.92-5.27c.64-.29,2-1.28,4.27-4.56a15.54,15.54,0,0,0,2.5-5.71c.59-.33,1.91-1.4,3.89-4.94h0a15.51,15.51,0,0,0,2-5.86c.54-.35,1.78-1.5,3.48-5.28a15.27,15.27,0,0,0,1.47-6.11c.54-.43,1.64-1.73,3-5.52a15.52,15.52,0,0,0,.93-6.12c.5-.48,1.49-1.86,2.48-5.77a15.34,15.34,0,0,0,.38-6.28c.45-.52,1.32-2,2-6a15.43,15.43,0,0,0-.14-6.17c.41-.57,1.14-2.11,1.43-6.1a15.51,15.51,0,0,0-.65-6.07C315.88,173.93,316.49,172.34,316.43,168.28ZM315,173.17a13.94,13.94,0,0,0-.73-1.32,14.72,14.72,0,0,0-1.07-1.48,22.71,22.71,0,0,1-2.45-3.77,8.4,8.4,0,0,1-.36-.8l-.59-1.56,0,.16a22,22,0,0,1-.68-5.53,28.46,28.46,0,0,1,.16-2.89,25.09,25.09,0,0,0,2.42,3,18,18,0,0,1,1.2,1.4,14.58,14.58,0,0,1,1.22,1.88l.34.64v0a14.59,14.59,0,0,1,1,5.42A17.38,17.38,0,0,1,315,173.17ZM309.32,178a37.66,37.66,0,0,0-1,4.13,18.83,18.83,0,0,0,0,7.65,33.27,33.27,0,0,0-1.4,4.06,19.12,19.12,0,0,0-.67,7.53,35.21,35.21,0,0,0-1.74,3.9,19.15,19.15,0,0,0-1.32,7.53,36,36,0,0,0-2.08,3.74,19.44,19.44,0,0,0-2,7.27,36.22,36.22,0,0,0-2.43,3.6,19.08,19.08,0,0,0-2.6,7.14,34.48,34.48,0,0,0-2.72,3.35,19.58,19.58,0,0,0-3.18,6.73,34.24,34.24,0,0,0-2.91,3,19.48,19.48,0,0,0-3.79,6.51,36,36,0,0,0-3.15,2.75,19.08,19.08,0,0,0-4.39,6.32,34.1,34.1,0,0,0-3.48,2.53,19.27,19.27,0,0,0-4.85,5.73,38.28,38.28,0,0,0-3.61,2.17,19,19,0,0,0-5.39,5.42A34.32,34.32,0,0,0,252.8,281a18.85,18.85,0,0,0-5.86,4.94,37.21,37.21,0,0,0-4,1.52,19.25,19.25,0,0,0-6.19,4.32,35.32,35.32,0,0,0-4,1.16,18.64,18.64,0,0,0-6.72,3.94,37.59,37.59,0,0,0-4.1.8,19.62,19.62,0,0,0-6.72,3.08,35.43,35.43,0,0,0-4.22.44,19.09,19.09,0,0,0-7.19,2.63,35,35,0,0,0-4.27.08,18.85,18.85,0,0,0-7.37,2,34.94,34.94,0,0,0-4.31-.3,18.94,18.94,0,0,0-7.51,1.34,35.58,35.58,0,0,0-4.23-.67,19.21,19.21,0,0,0-7.59.67,35.34,35.34,0,0,0-4.09-1,18.88,18.88,0,0,0-7.66,0,36.28,36.28,0,0,0-4-1.38,19,19,0,0,0-7.63-.65,33.79,33.79,0,0,0-3.89-1.73,19,19,0,0,0-7.54-1.32,34.64,34.64,0,0,0-3.76-2.08,19.1,19.1,0,0,0-7.3-2,37.07,37.07,0,0,0-3.5-2.36,19.36,19.36,0,0,0-7.15-2.6,36.71,36.71,0,0,0-3.33-2.69,19,19,0,0,0-6.88-3.21,36.81,36.81,0,0,0-3.06-3,19.14,19.14,0,0,0-6.6-3.8,36.29,36.29,0,0,0-2.79-3.22,19.16,19.16,0,0,0-6.25-4.37,36.57,36.57,0,0,0-2.51-3.45,19.09,19.09,0,0,0-5.87-4.91,35.8,35.8,0,0,0-2.18-3.62,19,19,0,0,0-5.4-5.39,35.73,35.73,0,0,0-1.87-3.82,19,19,0,0,0-4.86-5.8,34.42,34.42,0,0,0-1.51-3.94,19.14,19.14,0,0,0-4.4-6.26,35,35,0,0,0-1.17-4.06,19,19,0,0,0-3.84-6.62,38,38,0,0,0-.82-4.21,19.26,19.26,0,0,0-3.19-6.86,37.53,37.53,0,0,0-.44-4.18,19.21,19.21,0,0,0-2.63-7.18,37.33,37.33,0,0,0-.07-4.29,19.06,19.06,0,0,0-2-7.37,34.54,34.54,0,0,0,.3-4.27,19.09,19.09,0,0,0-1.31-7.48,37.85,37.85,0,0,0,.66-4.19,19,19,0,0,0-.68-7.6,34.42,34.42,0,0,0,1-4.18,18.93,18.93,0,0,0,0-7.67,35.2,35.2,0,0,0,1.39-4,19.06,19.06,0,0,0,.65-7.6,35.58,35.58,0,0,0,1.74-3.89,19,19,0,0,0,1.31-7.55,36.27,36.27,0,0,0,2.1-3.77,19.21,19.21,0,0,0,2-7.27,33.62,33.62,0,0,0,2.38-3.53,18.9,18.9,0,0,0,2.6-7.14,33.08,33.08,0,0,0,2.71-3.35,19.09,19.09,0,0,0,3.21-6.84,36.77,36.77,0,0,0,3-3.06,19.32,19.32,0,0,0,3.8-6.58,35.24,35.24,0,0,0,3.21-2.79,19.26,19.26,0,0,0,4.35-6.21,33.39,33.39,0,0,0,3.42-2.48A19,19,0,0,0,83,72.22,34.42,34.42,0,0,0,86.65,70,19.21,19.21,0,0,0,92,64.68a36.84,36.84,0,0,0,3.82-1.86,19,19,0,0,0,5.87-5,34.86,34.86,0,0,0,4-1.53A19.17,19.17,0,0,0,111.93,52,36.59,36.59,0,0,0,116,50.79,19.22,19.22,0,0,0,122.61,47a36.88,36.88,0,0,0,4.19-.82,18.92,18.92,0,0,0,7-3.26,37.84,37.84,0,0,0,4.26-.45,19.41,19.41,0,0,0,7-2.52c.45,0,1,0,1.7,0,.85,0,1.78,0,2.56-.1a19.1,19.1,0,0,0,7.34-2,36.86,36.86,0,0,0,4,.29h.19a19,19,0,0,0,7.51-1.33,37.89,37.89,0,0,0,4.2.67c.8.06,1.57.09,2.29.09a16,16,0,0,0,5.34-.79,34.16,34.16,0,0,0,4.1,1,25.79,25.79,0,0,0,4.24.38,15.18,15.18,0,0,0,2.53-.2,33.38,33.38,0,0,0,3.46,1.16,23.51,23.51,0,0,0,5.65.81,11.13,11.13,0,0,0,2.07-.19,36.34,36.34,0,0,0,3.92,1.75,20.88,20.88,0,0,0,6.68,1.35c.31,0,.58,0,.86-.06A37,37,0,0,0,217.53,45a19,19,0,0,0,7.45,2,5.72,5.72,0,0,0,.59,0l.29,0a32.84,32.84,0,0,0,2.89,1.91,19.15,19.15,0,0,0,7,2.59,38.72,38.72,0,0,0,3.48,2.84,18.81,18.81,0,0,0,7.08,3.24,37.36,37.36,0,0,0,3.14,3,18.75,18.75,0,0,0,6.72,3.84,37,37,0,0,0,2.86,3.29,18.61,18.61,0,0,0,6.42,4.43A36.55,36.55,0,0,0,268,75.58a18.72,18.72,0,0,0,6,4.94,34.73,34.73,0,0,0,2.21,3.69,18.94,18.94,0,0,0,5.42,5.4,38.55,38.55,0,0,0,1.89,3.89,19.27,19.27,0,0,0,4.88,5.81,36.34,36.34,0,0,0,1.53,4,19,19,0,0,0,4.39,6.24,34.78,34.78,0,0,0,1.18,4.16,19.08,19.08,0,0,0,3.79,6.56,34.48,34.48,0,0,0,.81,4.18,19.37,19.37,0,0,0,3.09,6.74,35.81,35.81,0,0,0,.45,4.4,19.21,19.21,0,0,0,2.6,7.14,37.53,37.53,0,0,0,.06,4.43,18.52,18.52,0,0,0,2.09,7.53,35.81,35.81,0,0,0-.3,4.2,19.56,19.56,0,0,0,1.27,7.38,37.93,37.93,0,0,0-.67,4.22A19.15,19.15,0,0,0,309.32,178Zm5.11-17.28c-.19-.29-.4-.61-.67-1a16.8,16.8,0,0,0-1.2-1.39,22,22,0,0,1-2.76-3.54,7.07,7.07,0,0,1-.43-.76l-.73-1.5-.05.33a21.08,21.08,0,0,1-1.31-5.85,28.46,28.46,0,0,1-.1-3.07,22.55,22.55,0,0,0,2.87,3,13.43,13.43,0,0,1,1.23,1.19,15.76,15.76,0,0,1,1.28,1.66l.07.1a14.08,14.08,0,0,1,1.8,5.93A17.89,17.89,0,0,1,314.43,160.73Zm-1.52-12.18c-.23-.3-.51-.64-.85-1a19.24,19.24,0,0,0-1.38-1.36,26.23,26.23,0,0,1-3.07-3.26,7.92,7.92,0,0,1-.46-.67l-.86-1.42v0a21.84,21.84,0,0,1-1.69-5.45c-.17-.93-.29-2.09-.36-3l.39.38a20.89,20.89,0,0,0,2.2,2l.6.46a16.18,16.18,0,0,1,1.39,1.15,13.62,13.62,0,0,1,1.29,1.42l.3.41a14.5,14.5,0,0,1,2.09,5.43A17.47,17.47,0,0,1,312.91,148.55Zm-2.45-12.05-.08-.11,0,.05c-.23-.25-.51-.53-.83-.83l-.06-.05-.1-.1A14,14,0,0,0,308,134.3l-.56-.42a24.83,24.83,0,0,1-2.07-1.86c-.22-.22-.45-.45-.7-.72a6.13,6.13,0,0,1-.56-.68l-.91-1.24a22.13,22.13,0,0,1-2.11-5.21c-.24-.86-.44-1.93-.6-2.85a25.74,25.74,0,0,0,3.3,2.42,14.4,14.4,0,0,1,1.51,1.05,15.14,15.14,0,0,1,1.67,1.49l.26.28a14.88,14.88,0,0,1,2.45,5.07A17.39,17.39,0,0,1,310.46,136.5Zm-3.59-11.75c-.28-.27-.64-.59-1.07-.93a14.13,14.13,0,0,0-1.52-1,21.87,21.87,0,0,1-3.58-2.71,7.25,7.25,0,0,1-.62-.62L299,118.2l0,.2a21.75,21.75,0,0,1-2.59-5.06,27.78,27.78,0,0,1-.86-2.85,24.63,24.63,0,0,0,3.45,2.09c.53.28,1,.52,1.6.91a16.08,16.08,0,0,1,1.76,1.32l.26.24a14.61,14.61,0,0,1,3,5A17.5,17.5,0,0,1,306.87,124.75Zm-6.31-16a17.5,17.5,0,0,1,1.67,4.65,13.3,13.3,0,0,0-1.11-.79,14.32,14.32,0,0,0-1.59-.9,21.41,21.41,0,0,1-3.81-2.38,7,7,0,0,1-.67-.57l-1.2-1.15,0,.15a21.48,21.48,0,0,1-3.08-4.87,28.36,28.36,0,0,1-1.09-2.71,26.45,26.45,0,0,0,3.65,1.81,14.82,14.82,0,0,1,1.68.76,15.77,15.77,0,0,1,1.9,1.18l.32.24A14.74,14.74,0,0,1,300.56,108.72Zm-6-10.75a17.69,17.69,0,0,1,2.06,4.44c-.32-.21-.73-.46-1.21-.72a15.15,15.15,0,0,0-1.67-.75,22.34,22.34,0,0,1-4-2,8.44,8.44,0,0,1-.71-.51l-1.29-1,.05.18A21.68,21.68,0,0,1,284.36,93,25.43,25.43,0,0,1,283,90.32a25.63,25.63,0,0,0,3.74,1.45,17.62,17.62,0,0,1,1.73.62,14.51,14.51,0,0,1,2,1l.17.11A14.27,14.27,0,0,1,294.58,98Zm-7-10.27h0A17.63,17.63,0,0,1,290.07,92c-.33-.17-.73-.37-1.21-.58a15,15,0,0,0-1.72-.6A21.91,21.91,0,0,1,283,89.13a6.59,6.59,0,0,1-.76-.45l-1.38-.93.07.15a21.12,21.12,0,0,1-3.9-4.28c-.53-.74-1.1-1.7-1.57-2.52a25.8,25.8,0,0,0,3.79,1.1,17.41,17.41,0,0,1,1.78.46,16.93,16.93,0,0,1,2.08.83l.42.22A14.58,14.58,0,0,1,287.61,87.7Zm-7.89-9.64h0a17.81,17.81,0,0,1,2.81,4c-.33-.14-.72-.29-1.19-.45a14.66,14.66,0,0,0-1.77-.44,22.78,22.78,0,0,1-4.3-1.32c-.26-.11-.53-.24-.79-.38L273,78.71l.1.2a21.06,21.06,0,0,1-4.34-4A28.74,28.74,0,0,1,267,72.51c.64.17,1.17.3,1.64.39a19.45,19.45,0,0,0,2.41.4l.7.09c.27,0,.55.1.87.17a15.28,15.28,0,0,1,2.09.63h0l.35.15A14.47,14.47,0,0,1,279.72,78.06Zm-5.63-5.14c-.33-.1-.7-.22-1.14-.32s-.74-.15-1.07-.2l-1-.13c-.58-.08-1.22-.16-2.11-.35-.56-.13-1.23-.3-2.05-.55a6.26,6.26,0,0,1-.82-.31l-1.52-.67.1.16a21.1,21.1,0,0,1-4.76-3.63,29,29,0,0,1-2-2.25c.64.11,1.17.19,1.64.24a19.2,19.2,0,0,0,2.46.2l.7,0c.29,0,.6.05.95.1a16.2,16.2,0,0,1,1.63.32c.3.07.48.13.48.13l.36.11a14.57,14.57,0,0,1,5,3.3A17.6,17.6,0,0,1,274.09,72.92Zm-9.16-8.45c-.35-.08-.76-.16-1.23-.23a9.38,9.38,0,0,0-1.09-.1c-.31,0-.61,0-.91,0a22.12,22.12,0,0,1-2.22-.17c-.57-.08-1.24-.19-2.07-.36a6.62,6.62,0,0,1-.84-.24L255,62.78l.1.13a21.32,21.32,0,0,1-5-3.17c-.73-.6-1.56-1.41-2.23-2.09l.55,0a21.42,21.42,0,0,0,3.6.06,15.77,15.77,0,0,1,1.71,0,12.18,12.18,0,0,1,2.09.28l.37.08a14.31,14.31,0,0,1,5.22,2.85A17.64,17.64,0,0,1,264.93,64.47ZM255,56.83c-.37,0-.82-.09-1.32-.12l-.77,0c-.42,0-.79,0-1.17,0a26.15,26.15,0,0,1-3.25,0c-.31,0-.63-.06-1-.1a6.81,6.81,0,0,1-.86-.16L245,56l.1.11a20.81,20.81,0,0,1-5.29-2.74,25.78,25.78,0,0,1-2.41-1.9,21.6,21.6,0,0,0,4.15-.25,14,14,0,0,1,1.7-.17,13.21,13.21,0,0,1,2.1.09l.93.19v0a14.87,14.87,0,0,1,4.91,2.27A17.23,17.23,0,0,1,255,56.83ZM244.65,50c-.37,0-.82,0-1.32,0a19,19,0,0,0-1.93.18,26.69,26.69,0,0,1-4.79.25l-.44,0h-.11l-1.27-.2a21.09,21.09,0,0,1-5.55-2.28,21.71,21.71,0,0,1-1.84-1.18,25.53,25.53,0,0,0,3.07-.52,16.69,16.69,0,0,1,4-.46l.73,0-.19-.55a14.55,14.55,0,0,1,5.54,1.89A17.14,17.14,0,0,1,244.65,50Zm-11.82-5.74-.48,0a15.53,15.53,0,0,0-1.79.34,21.41,21.41,0,0,1-4.45.62,6.46,6.46,0,0,1-.88,0l-1.65-.11,1,.75a19.2,19.2,0,0,1-6.62-1.87,27.24,27.24,0,0,1-2.65-1.43,23,23,0,0,0,2.37-.51l.18,0,.07,0c.41-.11.76-.22,1.08-.32l.17-.06a17.65,17.65,0,0,1,1.77-.49c.73-.15,1.35-.23,1.75-.28l.34,0h.37a14.45,14.45,0,0,1,5.79,1.4A20.72,20.72,0,0,1,232.83,44.28Zm-15.31-6.44A17.66,17.66,0,0,1,222,40q-.54.06-1.29.21a14.77,14.77,0,0,0-1.76.5l-.27.09-1,.31-.31.08h0c-.68.17-1.54.35-2.75.53a6.15,6.15,0,0,1-.87.06l-1.67,0,.13.08a21.15,21.15,0,0,1-5.69-1.27,28.54,28.54,0,0,1-2.71-1.15,25.87,25.87,0,0,0,3.7-1.27c.56-.23,1-.43,1.72-.64a15.18,15.18,0,0,1,2.18-.51l.57-.08A14.67,14.67,0,0,1,217.52,37.84Zm-12-3.34a17.55,17.55,0,0,1,4.6,1.69c-.35.07-.74.17-1.2.31a13.87,13.87,0,0,0-1.7.65,22.21,22.21,0,0,1-4.28,1.38,7.89,7.89,0,0,1-.87.15l-1.65.17.22.12a21.28,21.28,0,0,1-5.88-.77c-.62-.16-1.33-.39-2-.63a26.76,26.76,0,0,0,4.36-1.86,17.1,17.1,0,0,1,1.65-.79,18.29,18.29,0,0,1,2.13-.7l.71-.16-.06-.08A15.94,15.94,0,0,1,205.52,34.5Zm-10.68-2.28a21.17,21.17,0,0,1,4.07,1l-.69.15,0,0a14.83,14.83,0,0,0-3.06,1.28,21.93,21.93,0,0,1-4.14,1.76,5.86,5.86,0,0,1-.85.21l-1.63.32.51.21a23.88,23.88,0,0,1-4.63-.35,26.51,26.51,0,0,1-2.78-.65,25.6,25.6,0,0,0,3.49-1.92,17.92,17.92,0,0,1,1.58-.93,14.44,14.44,0,0,1,2.06-.88l.69-.22,0,0A15.09,15.09,0,0,1,194.84,32.22ZM182.58,31a17.68,17.68,0,0,1,4.76.84,12.46,12.46,0,0,0-1.2.54,13.26,13.26,0,0,0-1.57.94,22.65,22.65,0,0,1-4,2.1,7.42,7.42,0,0,1-.83.3l-1.6.46.28.09a21.65,21.65,0,0,1-5.81.24c-.9-.07-2-.24-2.89-.41a26.48,26.48,0,0,0,3.36-2.24,16.78,16.78,0,0,1,1.5-1.07,14.92,14.92,0,0,1,2-1.06l.38-.16A14.63,14.63,0,0,1,182.58,31Zm-12.32-.19a17.49,17.49,0,0,1,4.87.44c-.34.17-.74.39-1.2.67A13.65,13.65,0,0,0,172.45,33a22.71,22.71,0,0,1-3.77,2.45,8.4,8.4,0,0,1-.8.36l-1.56.6.22.05a22,22,0,0,1-5.71.72A27.79,27.79,0,0,1,158,37a25.09,25.09,0,0,0,3.17-2.54,18,18,0,0,1,1.4-1.2,16,16,0,0,1,1.88-1.22l.5-.27A14.81,14.81,0,0,1,170.26,30.82Zm-12.21.89a17.87,17.87,0,0,1,4.84,0c-.33.2-.73.46-1.17.79a13.66,13.66,0,0,0-1.38,1.2,22.6,22.6,0,0,1-3.54,2.76,6.36,6.36,0,0,1-.77.43l-1.5.73.27,0a21.21,21.21,0,0,1-5.59,1.21,27.62,27.62,0,0,1-2.9.1,26.31,26.31,0,0,0,3-2.89,17.46,17.46,0,0,1,1.29-1.31,13.82,13.82,0,0,1,1.76-1.38l.17-.11A14.49,14.49,0,0,1,158.05,31.71Zm-12,1.86a19,19,0,0,1,4.67-.43h0l.13.07c-.3.23-.69.54-1.11.91a15.13,15.13,0,0,0-1.27,1.31,22.14,22.14,0,0,1-3.29,3.06,6.27,6.27,0,0,1-.73.5l-1.42.86h.15a22.09,22.09,0,0,1-5.3,1.62,27.92,27.92,0,0,1-2.93.35,26.55,26.55,0,0,0,2.63-3,15,15,0,0,1,1.17-1.42,14,14,0,0,1,1.63-1.53l.23-.18A14.49,14.49,0,0,1,146,33.57Zm-12,3a17.58,17.58,0,0,1,4.84-.84c-.27.25-.59.55-.94.92a14,14,0,0,0-1.16,1.42,21.73,21.73,0,0,1-3,3.34,7.41,7.41,0,0,1-.68.55l-1.34,1h.2a21.66,21.66,0,0,1-5.38,2.21,28.37,28.37,0,0,1-2.86.6,25.62,25.62,0,0,0,2.4-3.27,15.88,15.88,0,0,1,1-1.51,18,18,0,0,1,1.49-1.67l.3-.28A14.54,14.54,0,0,1,134,36.62Zm-11.64,4a17.72,17.72,0,0,1,4.73-1.25,12.41,12.41,0,0,0-.9,1.05,14.09,14.09,0,0,0-1,1.51,21.87,21.87,0,0,1-2.71,3.58,7.25,7.25,0,0,1-.62.62l-1.27,1.09.21,0a21.59,21.59,0,0,1-5.09,2.62c-.84.32-1.89.61-2.79.85A25.31,25.31,0,0,0,115,47.22c.28-.53.52-1,.91-1.6a15.37,15.37,0,0,1,1.34-1.79l.2-.22A14.64,14.64,0,0,1,122.35,40.65Zm-11.23,5a17.77,17.77,0,0,1,4.6-1.66c-.24.3-.52.68-.82,1.14a12.7,12.7,0,0,0-.89,1.59,21.67,21.67,0,0,1-2.39,3.81,7,7,0,0,1-.57.67l-1.15,1.2.2-.05a21.82,21.82,0,0,1-4.83,3.05,27.72,27.72,0,0,1-2.73,1.09A25.63,25.63,0,0,0,104.3,53a14.82,14.82,0,0,1,.76-1.68,15.77,15.77,0,0,1,1.18-1.9l.32-.42A14.85,14.85,0,0,1,111.12,45.67Zm-10.81,6.07a18,18,0,0,1,4.44-2.06c-.19.31-.42.67-.66,1.12a15.15,15.15,0,0,0-.75,1.67,21.66,21.66,0,0,1-2,4,6.65,6.65,0,0,1-.51.71l-1,1.3.22-.07A21.61,21.61,0,0,1,95.32,62a28.31,28.31,0,0,1-2.58,1.31,26.11,26.11,0,0,0,1.48-3.8,16.67,16.67,0,0,1,.61-1.74,17.07,17.07,0,0,1,1-2l.2-.32A14.59,14.59,0,0,1,100.31,51.74ZM90.14,58.61h0a17.65,17.65,0,0,1,4.23-2.43c-.18.34-.4.76-.62,1.28a17.14,17.14,0,0,0-.6,1.72,21.91,21.91,0,0,1-1.68,4.17,5.73,5.73,0,0,1-.45.75l-.93,1.39.19-.08a21.83,21.83,0,0,1-4.21,3.82c-.72.51-1.65,1.06-2.45,1.52a26.08,26.08,0,0,0,1.11-3.83,18.25,18.25,0,0,1,.46-1.79A14,14,0,0,1,86,63.06l.26-.51A14.75,14.75,0,0,1,90.14,58.61ZM80.6,66.42h0a17.48,17.48,0,0,1,4-2.78c-.15.34-.31.75-.47,1.24a15.36,15.36,0,0,0-.45,1.77A21.12,21.12,0,0,1,82.34,71a6.28,6.28,0,0,1-.37.79l-.82,1.46.25-.13a21.47,21.47,0,0,1-3.94,4.28,27.07,27.07,0,0,1-2.3,1.73,26.37,26.37,0,0,0,.8-4,15.59,15.59,0,0,1,1-3.95l.15-.37A14.6,14.6,0,0,1,80.6,66.42Zm-8.8,8.52a17.58,17.58,0,0,1,3.72-3.12c-.12.36-.26.83-.39,1.37a16.59,16.59,0,0,0-.29,1.8,22.17,22.17,0,0,1-.94,4.4,6.77,6.77,0,0,1-.3.82l-.68,1.52.19-.12a21.55,21.55,0,0,1-3.48,4.49A29.05,29.05,0,0,1,67.46,88,25.23,25.23,0,0,0,67.9,84c0-.6,0-1.12.15-1.83A16.07,16.07,0,0,1,68.51,80l.1-.34A14.44,14.44,0,0,1,71.8,74.94Zm-8.06,9.28a17.73,17.73,0,0,1,3.46-3.43h0c-.08.37-.18.84-.26,1.38A16.16,16.16,0,0,0,66.81,84a22.44,22.44,0,0,1-.55,4.46,7.27,7.27,0,0,1-.24.85l-.53,1.57.16-.12a21.75,21.75,0,0,1-3.1,4.79,26.3,26.3,0,0,1-2,2.13,25.1,25.1,0,0,0,.09-4.11,16,16,0,0,1,0-1.84,15.24,15.24,0,0,1,.26-2.22L61,89.2A14.53,14.53,0,0,1,63.74,84.22Zm-7.2,9.92a17,17,0,0,1,3.15-3.73,13.76,13.76,0,0,0-.15,1.43,13.51,13.51,0,0,0,0,1.83,22.3,22.3,0,0,1-.17,4.49,5.4,5.4,0,0,1-.16.86l-.39,1.62.14-.13a22.11,22.11,0,0,1-2.65,5,26.73,26.73,0,0,1-1.83,2.33,26.2,26.2,0,0,0-.26-4.06,18.3,18.3,0,0,1-.18-1.83,17.13,17.13,0,0,1,.07-2.24l0-.19A14.36,14.36,0,0,1,56.54,94.14Zm-6.35,10.59a18.08,18.08,0,0,1,2.84-4c0,.38,0,.85,0,1.4a14.8,14.8,0,0,0,.19,1.82,22.13,22.13,0,0,1,.23,4.48,6.73,6.73,0,0,1-.09.88l-.25,1.64.11-.12A21.55,21.55,0,0,1,51,116.07a25.81,25.81,0,0,1-1.58,2.43,26.46,26.46,0,0,0-.62-4.08,15.84,15.84,0,0,1-.34-1.81,14.85,14.85,0,0,1-.12-2.23v-.27A14.54,14.54,0,0,1,50.19,104.73Zm-5.37,11a17.4,17.4,0,0,1,2.45-4.22c0,.38,0,.88.1,1.46a16.16,16.16,0,0,0,.34,1.8,21.91,21.91,0,0,1,.63,4.45,8.45,8.45,0,0,1,0,.87l-.11,1.66.11-.14A22.1,22.1,0,0,1,46.59,127a26.48,26.48,0,0,1-1.4,2.62,24.73,24.73,0,0,0-1-3.89c-.18-.58-.34-1.08-.49-1.78a14.48,14.48,0,0,1-.31-2.21l0-.23A14.42,14.42,0,0,1,44.82,115.72ZM40.4,127.31a17.85,17.85,0,0,1,2.11-4.47c.05.37.11.81.22,1.32a15.54,15.54,0,0,0,.5,1.77,22.07,22.07,0,0,1,1,4.37,8.5,8.5,0,0,1,.07.87l0,1.67.09-.15a21,21,0,0,1-1.27,5.66A28,28,0,0,1,42,141a26.47,26.47,0,0,0-1.3-3.82c-.23-.56-.43-1-.64-1.72a15.18,15.18,0,0,1-.51-2.18l-.06-.41A14.76,14.76,0,0,1,40.4,127.31ZM37,139.17a17.73,17.73,0,0,1,1.68-4.58c.08.36.18.81.34,1.32a14.06,14.06,0,0,0,.65,1.71,22,22,0,0,1,1.38,4.27,7.89,7.89,0,0,1,.15.87l.18,1.64.09-.18a21.49,21.49,0,0,1-.77,5.71,27.13,27.13,0,0,1-.91,2.77,25.7,25.7,0,0,0-1.61-3.65c-.28-.54-.52-1-.79-1.66a14.57,14.57,0,0,1-.7-2.13l-.1-.45A14.62,14.62,0,0,1,37,139.17Zm-2.31,12.15A17.56,17.56,0,0,1,36,146.6a12,12,0,0,0,.44,1.25,14.3,14.3,0,0,0,.79,1.65A21.44,21.44,0,0,1,39,153.64a4.82,4.82,0,0,1,.22.85l.32,1.63.09-.22a21.6,21.6,0,0,1-.26,5.81,27.28,27.28,0,0,1-.68,2.88,25.47,25.47,0,0,0-1.94-3.53c-.32-.51-.6-.94-.93-1.58a18.87,18.87,0,0,1-.88-2.06l-.08-.26A14.53,14.53,0,0,1,34.73,151.32Zm-1.26,12.31a17.46,17.46,0,0,1,.87-4.84c.14.34.32.76.56,1.23a13.26,13.26,0,0,0,.94,1.57,22.65,22.65,0,0,1,2.1,4,7.39,7.39,0,0,1,.29.83l.46,1.6.06-.17a21.33,21.33,0,0,1,.23,5.76c-.07.89-.24,1.95-.41,2.86a26.47,26.47,0,0,0-2.25-3.38,18.37,18.37,0,0,1-1.07-1.5,14.63,14.63,0,0,1-1.06-2l-.17-.41A14.45,14.45,0,0,1,33.47,163.63Zm.24,7.43c.17.34.39.76.68,1.23a18.07,18.07,0,0,0,1.07,1.48,21.45,21.45,0,0,1,2.45,3.77,8.4,8.4,0,0,1,.36.8l.6,1.56.05-.23a21.72,21.72,0,0,1,.71,5.66,26.41,26.41,0,0,1-.16,2.93A25.13,25.13,0,0,0,37,185.12a18,18,0,0,1-1.2-1.4,14.58,14.58,0,0,1-1.22-1.88l-.18-.34a14.59,14.59,0,0,1-1.08-5.6A17.73,17.73,0,0,1,33.71,171.06Zm.47,12.26c.2.31.45.7.77,1.12a13.67,13.67,0,0,0,1.19,1.38,22.59,22.59,0,0,1,2.77,3.55,6.22,6.22,0,0,1,.43.76l.73,1.5,0-.2a21.82,21.82,0,0,1,1.22,5.63,28.69,28.69,0,0,1,.1,2.95,25.26,25.26,0,0,0-2.79-2.9,17.68,17.68,0,0,1-1.31-1.3,18.49,18.49,0,0,1-1.38-1.75l-.1-.17a14.14,14.14,0,0,1-1.67-5.67A17.62,17.62,0,0,1,34.18,183.32Zm1.54,12.21c.23.3.51.66.86,1.05a13.82,13.82,0,0,0,1.31,1.27A22.15,22.15,0,0,1,41,201.14c.18.23.34.47.5.72l.86,1.42v-.17A21,21,0,0,1,44,208.62a28.21,28.21,0,0,1,.35,2.82,26.29,26.29,0,0,0-3.07-2.69,16.78,16.78,0,0,1-1.42-1.17,14.48,14.48,0,0,1-1.53-1.64l-.36-.45a15,15,0,0,1-1.87-5.05A18.21,18.21,0,0,1,35.72,195.53Zm2.55,12.09,0-.06c.25.28.58.63,1,1a16.74,16.74,0,0,0,1.41,1.15,22,22,0,0,1,3.34,3,7.5,7.5,0,0,1,.56.68l1,1.34v-.25a22,22,0,0,1,2.14,5.26,29.16,29.16,0,0,1,.6,2.87,27.43,27.43,0,0,0-3.23-2.37,17.33,17.33,0,0,1-1.52-1,14.41,14.41,0,0,1-1.66-1.49l-.3-.32a14.63,14.63,0,0,1-2.47-5.12A18.53,18.53,0,0,1,38.27,207.62Zm3.65,11.61c.27.25.61.55,1,.87a14.13,14.13,0,0,0,1.52,1,21.62,21.62,0,0,1,3.58,2.7,6.16,6.16,0,0,1,.62.63l1.09,1.26,0-.21a21.68,21.68,0,0,1,2.67,5.15,28.42,28.42,0,0,1,.83,2.75,24.82,24.82,0,0,0-3.43-2.08,16,16,0,0,1-1.6-.9,18.67,18.67,0,0,1-1.79-1.34l-.41-.38a14.66,14.66,0,0,1-2.8-4.74A17.6,17.6,0,0,1,41.92,219.23Zm6.31,16a17.93,17.93,0,0,1-1.65-4.56,12.76,12.76,0,0,0,1.09.78,13.51,13.51,0,0,0,1.6.89,23.14,23.14,0,0,1,3.81,2.39,5.86,5.86,0,0,1,.66.57l1.2,1.15,0-.25A21.43,21.43,0,0,1,58,241.06c.38.79.76,1.79,1.07,2.65a26.41,26.41,0,0,0-3.66-1.81,15.86,15.86,0,0,1-1.68-.76,17.46,17.46,0,0,1-1.9-1.18l-.37-.28A14.72,14.72,0,0,1,48.23,235.2Zm5.94,10.69a18.41,18.41,0,0,1-2-4.39,13.84,13.84,0,0,0,1.23.73A15.15,15.15,0,0,0,55,243a22.34,22.34,0,0,1,4,2,6.65,6.65,0,0,1,.71.51l1.3,1-.08-.22a21.76,21.76,0,0,1,3.44,4.53c.45.76.92,1.73,1.31,2.58A25.25,25.25,0,0,0,62,252a16.55,16.55,0,0,1-1.73-.61,17.82,17.82,0,0,1-2-1l-.45-.29A14.77,14.77,0,0,1,54.17,245.89Zm6.92,10.19a17.86,17.86,0,0,1-2.42-4.23c.33.18.74.39,1.23.6a17.14,17.14,0,0,0,1.72.6,21.91,21.91,0,0,1,4.17,1.68,6.47,6.47,0,0,1,.75.45l1.38.93-.09-.22a21.78,21.78,0,0,1,3.88,4.26c.52.72,1.07,1.65,1.53,2.45a26.92,26.92,0,0,0-3.86-1.12A17.41,17.41,0,0,1,67.6,261a16.93,16.93,0,0,1-2.08-.83l-.51-.26A15.15,15.15,0,0,1,61.09,256.08Zm7.79,9.54a17.56,17.56,0,0,1-2.78-4,12.64,12.64,0,0,0,1.26.48,17.21,17.21,0,0,0,1.78.45,21.53,21.53,0,0,1,4.29,1.31,8.17,8.17,0,0,1,.79.38l1.46.81-.11-.22a21.71,21.71,0,0,1,4.24,3.91,25.9,25.9,0,0,1,1.75,2.34,26.26,26.26,0,0,0-4-.79,15.13,15.13,0,0,1-1.81-.3,13.83,13.83,0,0,1-2.14-.65l-.34-.13A14.56,14.56,0,0,1,68.88,265.62Zm5.45,5.09c.36.12.8.25,1.32.37a13,13,0,0,0,1.8.29,21.89,21.89,0,0,1,4.4.94,6.85,6.85,0,0,1,.82.31l1.52.67-.11-.17a22,22,0,0,1,4.55,3.52,27.19,27.19,0,0,1,1.94,2.17,23.72,23.72,0,0,0-4-.44,18.41,18.41,0,0,1-1.84-.15,15.26,15.26,0,0,1-2.18-.46l-.39-.12a14.59,14.59,0,0,1-4.68-3.17A17.9,17.9,0,0,1,74.33,270.71Zm9,8.35c.37.09.83.18,1.36.26a13.87,13.87,0,0,0,1.82.13A21.94,21.94,0,0,1,91,280a5.25,5.25,0,0,1,.84.23l1.58.54-.13-.17a21.5,21.5,0,0,1,4.82,3.1,28.37,28.37,0,0,1,2.13,2,27.12,27.12,0,0,0-4.07-.09,15.81,15.81,0,0,1-1.84,0,16,16,0,0,1-2.22-.27l-.36-.07a14.58,14.58,0,0,1-4.94-2.77A17.43,17.43,0,0,1,83.33,279.06ZM93,286.59c.37.05.84.11,1.39.14a13.47,13.47,0,0,0,1.83,0,22.82,22.82,0,0,1,4.49.16,6.54,6.54,0,0,1,.86.17l1.61.39-.13-.15a21.91,21.91,0,0,1,5,2.67,27.79,27.79,0,0,1,2.31,1.81,24.91,24.91,0,0,0-4,.26,16.09,16.09,0,0,1-1.83.17,15.23,15.23,0,0,1-2.24-.07l-.32,0a14.67,14.67,0,0,1-5.24-2.33A17.61,17.61,0,0,1,93,286.59Zm10.3,6.65c.37,0,.84,0,1.39,0a14.93,14.93,0,0,0,1.82-.18,22.13,22.13,0,0,1,4.48-.23,5.12,5.12,0,0,1,.87.08l1.65.26-.15-.13a21.74,21.74,0,0,1,5.29,2.21,26.63,26.63,0,0,1,2.4,1.57,25.12,25.12,0,0,0-4,.62,15.94,15.94,0,0,1-1.81.33,13.39,13.39,0,0,1-2.23.12l-.49,0a14.68,14.68,0,0,1-5.17-1.82A17.55,17.55,0,0,1,103.3,293.24ZM114.11,299c.38,0,.87,0,1.43-.11a13.65,13.65,0,0,0,1.79-.34,22.15,22.15,0,0,1,4.45-.62,6.48,6.48,0,0,1,.88,0l1.65.1-.18-.13a21.67,21.67,0,0,1,5.4,1.74,27.39,27.39,0,0,1,2.61,1.39,25.14,25.14,0,0,0-3.91,1,17.65,17.65,0,0,1-1.77.49,15.43,15.43,0,0,1-2.21.32h-.18a14.5,14.5,0,0,1-5.77-1.39A17.91,17.91,0,0,1,114.11,299Zm15.76,6.83a17.34,17.34,0,0,1-4.45-2.1c.37,0,.81-.11,1.33-.21a14.77,14.77,0,0,0,1.76-.5,22,22,0,0,1,4.37-1,8.47,8.47,0,0,1,.88-.07l1.67,0-.16-.1a21.72,21.72,0,0,1,5.64,1.27,25.72,25.72,0,0,1,2.68,1.15,25.92,25.92,0,0,0-3.8,1.29,16.59,16.59,0,0,1-1.72.64,14.86,14.86,0,0,1-2.18.51l-.44.06A14.55,14.55,0,0,1,129.87,305.82Zm11.89,3.36a17.69,17.69,0,0,1-4.59-1.68c.36-.08.8-.18,1.3-.33a15.94,15.94,0,0,0,1.71-.65,21.83,21.83,0,0,1,4.27-1.39,7.9,7.9,0,0,1,.87-.14l1.64-.18-.19-.1a21.24,21.24,0,0,1,5.74.77c.87.22,1.89.58,2.76.9a24.59,24.59,0,0,0-3.66,1.62c-.54.28-1,.52-1.66.79a15.19,15.19,0,0,1-2.13.69l-.52.12A14.72,14.72,0,0,1,141.76,309.18Zm12.12,2.3a17.7,17.7,0,0,1-4.7-1.27,11.44,11.44,0,0,0,1.26-.44,15.15,15.15,0,0,0,1.65-.79,21.62,21.62,0,0,1,4.14-1.76,7.38,7.38,0,0,1,.84-.22l1.64-.32-.23-.09a21.52,21.52,0,0,1,5.79.27,26.85,26.85,0,0,1,2.8.65,24.82,24.82,0,0,0-3.55,1.94,18.34,18.34,0,0,1-1.58.94,15.64,15.64,0,0,1-2.06.87l-.56.18A14.75,14.75,0,0,1,153.88,311.48Zm12.21,1.25a17.89,17.89,0,0,1-4.77-.85c.35-.14.78-.32,1.26-.56a14.77,14.77,0,0,0,1.57-.94,22.47,22.47,0,0,1,4-2.11A7.39,7.39,0,0,1,169,308l1.6-.46-.25-.08a21.66,21.66,0,0,1,5.74-.22,26.61,26.61,0,0,1,2.9.41,25.83,25.83,0,0,0-3.35,2.24,16.78,16.78,0,0,1-1.5,1.07,14.76,14.76,0,0,1-2,1.05l-.26.11A14.55,14.55,0,0,1,166.09,312.73Zm12.35.18a17.83,17.83,0,0,1-4.88-.44c.33-.17.73-.39,1.18-.67a13.49,13.49,0,0,0,1.49-1.07,22.21,22.21,0,0,1,3.77-2.44,5.27,5.27,0,0,1,.8-.36l1.55-.6-.2-.05a21.59,21.59,0,0,1,5.72-.73,27,27,0,0,1,3,.17,25,25,0,0,0-3.14,2.52,14.9,14.9,0,0,1-1.4,1.19,14.14,14.14,0,0,1-1.87,1.22l-.21.11A14.43,14.43,0,0,1,178.44,312.91Zm12.35-.89a17.69,17.69,0,0,1-4.93,0c.32-.2.7-.45,1.12-.77a13.67,13.67,0,0,0,1.38-1.19,21.65,21.65,0,0,1,3.55-2.76,8,8,0,0,1,.76-.44l1.5-.73-.18,0a21.56,21.56,0,0,1,5.64-1.23,28.39,28.39,0,0,1,2.93-.1,26.33,26.33,0,0,0-2.9,2.78,14.32,14.32,0,0,1-1.29,1.31,15.94,15.94,0,0,1-1.76,1.39l-.28.18A14.7,14.7,0,0,1,190.79,312Zm12.2-2a17.45,17.45,0,0,1-4.87.41c.29-.22.65-.5,1-.85a14,14,0,0,0,1.28-1.31,22.15,22.15,0,0,1,3.29-3.06,7.64,7.64,0,0,1,.72-.5l1.42-.85h-.21a21.55,21.55,0,0,1,5.52-1.73c.87-.16,1.93-.27,2.85-.34A25.86,25.86,0,0,0,211.2,305a16.78,16.78,0,0,1-1.17,1.42,19.68,19.68,0,0,1-1.63,1.53l-.17.12A14.43,14.43,0,0,1,203,310Zm11.75-2.85a19.31,19.31,0,0,1-4.61.84l.08,0-.14-.06c.29-.26.65-.6,1-1a14,14,0,0,0,1.16-1.42,21.58,21.58,0,0,1,3-3.33,5.23,5.23,0,0,1,.67-.56l1.35-1h-.16a22.46,22.46,0,0,1,5.06-2A26.8,26.8,0,0,1,225,298a25.57,25.57,0,0,0-2.28,3.13,17.33,17.33,0,0,1-1,1.52,17,17,0,0,1-1.49,1.66l-.54.49,0,0A14.76,14.76,0,0,1,214.74,307.19ZM226.42,303a18.34,18.34,0,0,1-4.65,1.25c.23-.26.5-.56.78-.92a15.16,15.16,0,0,0,1-1.51,21.55,21.55,0,0,1,2.7-3.59,6.08,6.08,0,0,1,.63-.61l1.26-1.1-.36.05a21,21,0,0,1,5.29-2.77,26,26,0,0,1,2.72-.82,25.75,25.75,0,0,0-2.14,3.51,16,16,0,0,1-.9,1.6,18.67,18.67,0,0,1-1.34,1.79l-.36.39A14.74,14.74,0,0,1,226.42,303Zm11.13-5a18.32,18.32,0,0,1-4.54,1.65c.24-.3.54-.7.86-1.18a17.14,17.14,0,0,0,.89-1.6,21.78,21.78,0,0,1,2.38-3.81q.27-.35.57-.66l1.16-1.2-.24.05a22,22,0,0,1,4.78-3,27.12,27.12,0,0,1,2.7-1.08,25.87,25.87,0,0,0-1.77,3.58,18.18,18.18,0,0,1-.76,1.68,17.46,17.46,0,0,1-1.18,1.9l-.31.4A14.57,14.57,0,0,1,237.55,298.07Zm10.78-6a17.91,17.91,0,0,1-4.43,2c.2-.31.43-.69.68-1.15a15.15,15.15,0,0,0,.75-1.67,22.69,22.69,0,0,1,2-4,6.65,6.65,0,0,1,.51-.71l1.05-1.29-.23.07a21.49,21.49,0,0,1,4.61-3.53,28.7,28.7,0,0,1,2.6-1.31,26.07,26.07,0,0,0-1.45,3.74,16.87,16.87,0,0,1-.62,1.74,13.33,13.33,0,0,1-1,2l-.25.39A14.5,14.5,0,0,1,248.33,292Zm10.2-6.94h0a17.65,17.65,0,0,1-4.23,2.43c.17-.33.38-.73.58-1.22a13.25,13.25,0,0,0,.6-1.72,22.17,22.17,0,0,1,1.69-4.17,6.47,6.47,0,0,1,.45-.75l.93-1.39-.21.09a21.9,21.9,0,0,1,4.27-3.89A27.47,27.47,0,0,1,265,273a24.76,24.76,0,0,0-1.17,4,17.41,17.41,0,0,1-.46,1.78,13.41,13.41,0,0,1-.84,2.07l-.18.36A14.58,14.58,0,0,1,258.53,285.1Zm9.46-7.64h0a18,18,0,0,1-3.91,2.74h0c.16-.35.34-.82.53-1.37a15.14,15.14,0,0,0,.44-1.77,22.56,22.56,0,0,1,1.32-4.3,7.11,7.11,0,0,1,.38-.79l.81-1.46-.21.11a22.28,22.28,0,0,1,3.82-4.09,28.44,28.44,0,0,1,2.38-1.79,26.34,26.34,0,0,0-.78,3.9,15.62,15.62,0,0,1-.3,1.82,14.3,14.3,0,0,1-.65,2.14l-.12.31A14.52,14.52,0,0,1,268,277.46Zm8.91-8.68a17.32,17.32,0,0,1-3.79,3.15c.11-.34.23-.75.35-1.25a16.21,16.21,0,0,0,.29-1.8,22.17,22.17,0,0,1,.94-4.4,7.45,7.45,0,0,1,.3-.82l.68-1.51-.17.1a21.32,21.32,0,0,1,3.57-4.63,27.55,27.55,0,0,1,2.1-1.89,26.64,26.64,0,0,0-.46,4.1,15.71,15.71,0,0,1-.14,1.83,16.07,16.07,0,0,1-.46,2.19l-.17.55A14.77,14.77,0,0,1,276.9,268.78Zm8-9.18a17.94,17.94,0,0,1-3.38,3.39h0c.09-.38.19-.87.27-1.43a14.13,14.13,0,0,0,.13-1.83,22,22,0,0,1,.56-4.46,5.25,5.25,0,0,1,.23-.84l.54-1.58L283,253a22.43,22.43,0,0,1,3.06-4.72c.55-.67,1.28-1.43,1.93-2.07a25.5,25.5,0,0,0-.1,4.21,16,16,0,0,1,0,1.84,15.24,15.24,0,0,1-.26,2.22l-.09.39A14.54,14.54,0,0,1,284.87,259.6Zm7.14-9.76a18.12,18.12,0,0,1-3.07,3.67h0a14.81,14.81,0,0,0,.16-1.53,13.51,13.51,0,0,0,0-1.83,22.83,22.83,0,0,1,.16-4.49c0-.28.09-.57.16-.86l.4-1.61-.16.14a22.3,22.3,0,0,1,2.6-4.86,28.33,28.33,0,0,1,1.83-2.33,26.35,26.35,0,0,0,.26,4.07,15.53,15.53,0,0,1,.18,1.83,16.9,16.9,0,0,1-.07,2.23l0,.17A14.56,14.56,0,0,1,292,249.84Zm6.35-10.58h0a17.67,17.67,0,0,1-2.84,4c0-.37,0-.85,0-1.4a16.57,16.57,0,0,0-.19-1.81,22.25,22.25,0,0,1-.23-4.49,8.52,8.52,0,0,1,.08-.87l.26-1.65-.1.12a21.63,21.63,0,0,1,2.21-5.27,30,30,0,0,1,1.64-2.51,26.44,26.44,0,0,0,.62,4.09,15.84,15.84,0,0,1,.34,1.81c.08.64.11,1.2.12,1.6,0,.21,0,.34,0,.34v.36A14.45,14.45,0,0,1,298.36,239.26Zm5.43-11.06a17.49,17.49,0,0,1-2.51,4.29c0-.39,0-.89-.1-1.46a15.73,15.73,0,0,0-.34-1.8,21.91,21.91,0,0,1-.63-4.45,8.64,8.64,0,0,1,0-.88l.11-1.66-.05.07A22.62,22.62,0,0,1,302,217c.38-.82.92-1.79,1.39-2.59a28,28,0,0,0,1,3.92,13.55,13.55,0,0,1,.49,1.77,15.43,15.43,0,0,1,.32,2.21l0,.38A14.6,14.6,0,0,1,303.79,228.2Zm4.4-11.55a17.49,17.49,0,0,1-2.09,4.44c0-.37-.11-.82-.22-1.34a14.77,14.77,0,0,0-.5-1.76,22.23,22.23,0,0,1-1-4.38,6.13,6.13,0,0,1-.07-.87l0-1.66-.11.16a21.57,21.57,0,0,1,1.27-5.63c.3-.84.75-1.84,1.15-2.69a25.84,25.84,0,0,0,1.32,3.89c.23.56.43,1,.64,1.72a15.18,15.18,0,0,1,.51,2.18l0,.16,0,.48A15,15,0,0,1,308.19,216.65Zm3.39-11.8a18,18,0,0,1-1.69,4.59c-.08-.38-.19-.85-.35-1.39a14.06,14.06,0,0,0-.65-1.71,22.56,22.56,0,0,1-1.39-4.27,7.9,7.9,0,0,1-.14-.87l-.18-1.65-.08.15a22,22,0,0,1,.78-5.61,27.72,27.72,0,0,1,.92-2.8,24.59,24.59,0,0,0,1.62,3.68,17.34,17.34,0,0,1,.79,1.66,15.84,15.84,0,0,1,.69,2.12l.05.22A14.47,14.47,0,0,1,311.58,204.85Zm2.32-12.16a17.3,17.3,0,0,1-1.29,4.75,13.09,13.09,0,0,0-.44-1.27,14.23,14.23,0,0,0-.8-1.65,22.12,22.12,0,0,1-1.75-4.14,7.55,7.55,0,0,1-.22-.85l-.32-1.63-.07.18a21.44,21.44,0,0,1,.27-5.78,26.69,26.69,0,0,1,.66-2.82,26,26,0,0,0,2,3.6,15.75,15.75,0,0,1,.93,1.58,14.44,14.44,0,0,1,.88,2.06l.06.18.09.37v0A14.79,14.79,0,0,1,313.9,192.69Zm1.28-12.19a18.37,18.37,0,0,1-.85,4.81c-.15-.36-.34-.81-.59-1.32a14.77,14.77,0,0,0-.94-1.57,22.47,22.47,0,0,1-2.11-4,6.75,6.75,0,0,1-.29-.83l-.46-1.59-.06.19a22,22,0,0,1-.21-5.66,29.12,29.12,0,0,1,.41-2.89,26.06,26.06,0,0,0,2.31,3.47,18.37,18.37,0,0,1,1.07,1.5,16.17,16.17,0,0,1,1.06,2l.05.13A14.48,14.48,0,0,1,315.18,180.5Z"/></svg>